P3
15 15
255
0 0  0
0 17  0
0 34  0
0 51  0
0 69  0
0 86  0
0 103  0
0 121  0
0 138  0
0 155  0
0 173  0
0 190  0
0 207  0
0 225  0
0 242  0
17 0  0
17 17  0
17 34  0
17 51  0
17 69  0
17 86  0
17 103  0
17 121  0
17 138  0
17 155  0
17 173  0
17 190  0
17 207  0
17 225  0
17 242  0
34 0  0
34 17  0
34 34  0
34 51  0
34 69  0
34 86  0
34 103  0
34 121  0
34 138  0
34 155  0
34 173  0
34 190  0
34 207  0
34 225  0
34 242  0
51 0  0
51 17  0
51 34  0
51 51  0
51 69  0
51 86  0
51 103  0
51 121  0
51 138  0
51 155  0
51 173  0
51 190  0
51 207  0
51 225  0
51 242  0
69 0  0
69 17  0
69 34  0
69 51  0
69 69  0
69 86  0
69 103  0
69 121  0
69 138  0
69 155  0
69 173  0
69 190  0
69 207  0
69 225  0
69 242  0
86 0  0
86 17  0
86 34  0
86 51  0
86 69  0
86 86  0
86 103  0
86 121  0
86 138  0
86 155  0
86 173  0
86 190  0
86 207  0
86 225  0
86 242  0
103 0  0
103 17  0
103 34  0
103 51  0
103 69  0
103 86  0
103 103  0
103 121  0
103 138  0
103 155  0
103 173  0
103 190  0
103 207  0
103 225  0
103 242  0
121 0  0
121 17  0
121 34  0
121 51  0
121 69  0
121 86  0
121 103  0
121 121  0
121 138  0
121 155  0
121 173  0
121 190  0
121 207  0
121 225  0
121 242  0
138 0  0
138 17  0
138 34  0
138 51  0
138 69  0
138 86  0
138 103  0
138 121  0
138 138  0
138 155  0
138 173  0
138 190  0
138 207  0
138 225  0
138 242  0
155 0  0
155 17  0
155 34  0
155 51  0
155 69  0
155 86  0
155 103  0
155 121  0
155 138  0
155 155  0
155 173  0
155 190  0
155 207  0
155 225  0
155 242  0
173 0  0
173 17  0
173 34  0
173 51  0
173 69  0
173 86  0
173 103  0
173 121  0
173 138  0
173 155  0
173 173  0
173 190  0
173 207  0
173 225  0
173 242  0
190 0  0
190 17  0
190 34  0
190 51  0
190 69  0
190 86  0
190 103  0
190 121  0
190 138  0
190 155  0
190 173  0
190 190  0
190 207  0
190 225  0
190 242  0
207 0  0
207 17  0
207 34  0
207 51  0
207 69  0
207 86  0
207 103  0
207 121  0
207 138  0
207 155  0
207 173  0
207 190  0
207 207  0
207 225  0
207 242  0
225 0  0
225 17  0
225 34  0
225 51  0
225 69  0
225 86  0
225 103  0
225 121  0
225 138  0
225 155  0
225 173  0
225 190  0
225 207  0
225 225  0
225 242  0
242 0  0
242 17  0
242 34  0
242 51  0
242 69  0
242 86  0
242 103  0
242 121  0
242 138  0
242 155  0
242 173  0
242 190  0
242 207  0
242 225  0
242 242  0
